<mxfile host="app.diagrams.net" modified="2021-07-26T03:03:11.093Z" agent="5.0 (Windows NT 10.0; Win64; x64) AppleWebKit/537.36 (KHTML, like Gecko) Chrome/92.0.4515.107 Safari/537.36 Edg/92.0.902.55" etag="lTY-wxjdVVEZd1Z-yXZU" version="14.9.2" type="github">
  <diagram id="0EcZxe93aFkEBUZ7pKa0" name="Page-1">
    <mxGraphModel dx="1422" dy="762" grid="1" gridSize="10" guides="1" tooltips="1" connect="1" arrows="1" fold="1" page="1" pageScale="1" pageWidth="827" pageHeight="1169" math="0" shadow="0">
      <root>
        <mxCell id="0" />
        <mxCell id="1" parent="0" />
        <mxCell id="4qUAyBkfXDqzjAxu6Q62-3" value="Cobol&amp;nbsp;" style="rounded=1;whiteSpace=wrap;html=1;" vertex="1" parent="1">
          <mxGeometry x="10" y="90" width="120" height="60" as="geometry" />
        </mxCell>
        <mxCell id="4qUAyBkfXDqzjAxu6Q62-4" value="Parâmetros / Opções de Compilação&amp;nbsp;" style="rounded=1;whiteSpace=wrap;html=1;" vertex="1" parent="1">
          <mxGeometry x="440" y="90" width="120" height="60" as="geometry" />
        </mxCell>
        <mxCell id="4qUAyBkfXDqzjAxu6Q62-5" value="z/OS Binder (Linkedição)" style="rounded=1;whiteSpace=wrap;html=1;" vertex="1" parent="1">
          <mxGeometry x="10" y="360" width="120" height="60" as="geometry" />
        </mxCell>
        <mxCell id="4qUAyBkfXDqzjAxu6Q62-6" value="C/C++ on z/OS&amp;nbsp;" style="rounded=1;whiteSpace=wrap;html=1;" vertex="1" parent="1">
          <mxGeometry x="10" y="180" width="120" height="60" as="geometry" />
        </mxCell>
        <mxCell id="4qUAyBkfXDqzjAxu6Q62-7" value="Java on z/OS" style="rounded=1;whiteSpace=wrap;html=1;" vertex="1" parent="1">
          <mxGeometry x="10" y="270" width="120" height="60" as="geometry" />
        </mxCell>
        <mxCell id="4qUAyBkfXDqzjAxu6Q62-9" value="Pré-Compilação CICS" style="rounded=1;whiteSpace=wrap;html=1;" vertex="1" parent="1">
          <mxGeometry x="160" y="90" width="120" height="60" as="geometry" />
        </mxCell>
        <mxCell id="4qUAyBkfXDqzjAxu6Q62-10" value="Pré-Compilação DB2" style="rounded=1;whiteSpace=wrap;html=1;" vertex="1" parent="1">
          <mxGeometry x="300" y="90" width="120" height="60" as="geometry" />
        </mxCell>
        <mxCell id="4qUAyBkfXDqzjAxu6Q62-11" value="Bind, plano, collecitions, packages, grant, explain Stored Procedures etc&amp;nbsp;" style="rounded=1;whiteSpace=wrap;html=1;" vertex="1" parent="1">
          <mxGeometry x="10" y="450" width="120" height="80" as="geometry" />
        </mxCell>
        <mxCell id="4qUAyBkfXDqzjAxu6Q62-12" value="Language Environment" style="rounded=1;whiteSpace=wrap;html=1;" vertex="1" parent="1">
          <mxGeometry x="770" width="120" height="60" as="geometry" />
        </mxCell>
        <mxCell id="4qUAyBkfXDqzjAxu6Q62-13" value="Storage Tunning CICS/ IMS / Batch" style="rounded=1;whiteSpace=wrap;html=1;" vertex="1" parent="1">
          <mxGeometry x="920" width="120" height="60" as="geometry" />
        </mxCell>
        <mxCell id="4qUAyBkfXDqzjAxu6Q62-14" value="Ferramentas" style="rounded=1;whiteSpace=wrap;html=1;" vertex="1" parent="1">
          <mxGeometry x="590" width="120" height="60" as="geometry" />
        </mxCell>
        <mxCell id="4qUAyBkfXDqzjAxu6Q62-15" value="Strobe" style="rounded=1;whiteSpace=wrap;html=1;" vertex="1" parent="1">
          <mxGeometry x="590" y="90" width="120" height="60" as="geometry" />
        </mxCell>
        <mxCell id="4qUAyBkfXDqzjAxu6Q62-16" value="Abend-Aid" style="rounded=1;whiteSpace=wrap;html=1;" vertex="1" parent="1">
          <mxGeometry x="590" y="180" width="120" height="60" as="geometry" />
        </mxCell>
        <mxCell id="4qUAyBkfXDqzjAxu6Q62-17" value="Xpediter Cobol CICS, IMS, Batch" style="rounded=1;whiteSpace=wrap;html=1;" vertex="1" parent="1">
          <mxGeometry x="590" y="270" width="120" height="60" as="geometry" />
        </mxCell>
        <mxCell id="4qUAyBkfXDqzjAxu6Q62-18" value="Code Coverage" style="rounded=1;whiteSpace=wrap;html=1;" vertex="1" parent="1">
          <mxGeometry x="590" y="370" width="120" height="60" as="geometry" />
        </mxCell>
        <mxCell id="4qUAyBkfXDqzjAxu6Q62-19" value="ChangeMan" style="rounded=1;whiteSpace=wrap;html=1;" vertex="1" parent="1">
          <mxGeometry x="590" y="470" width="120" height="60" as="geometry" />
        </mxCell>
        <mxCell id="4qUAyBkfXDqzjAxu6Q62-21" value="Distribuição" style="rounded=1;whiteSpace=wrap;html=1;" vertex="1" parent="1">
          <mxGeometry x="590" y="570" width="120" height="60" as="geometry" />
        </mxCell>
        <mxCell id="4qUAyBkfXDqzjAxu6Q62-22" value="Eclipse" style="rounded=1;whiteSpace=wrap;html=1;" vertex="1" parent="1">
          <mxGeometry x="590" y="670" width="120" height="60" as="geometry" />
        </mxCell>
        <mxCell id="4qUAyBkfXDqzjAxu6Q62-23" value="Como desenvolver um plugin em eclipse" style="rounded=1;whiteSpace=wrap;html=1;" vertex="1" parent="1">
          <mxGeometry x="740" y="670" width="120" height="60" as="geometry" />
        </mxCell>
        <mxCell id="4qUAyBkfXDqzjAxu6Q62-24" value="Como desenvolver REST/API para extrair informações de dentro do mainframe?" style="rounded=1;whiteSpace=wrap;html=1;" vertex="1" parent="1">
          <mxGeometry x="740" y="750" width="120" height="80" as="geometry" />
        </mxCell>
        <mxCell id="4qUAyBkfXDqzjAxu6Q62-25" value="Zowe" style="rounded=1;whiteSpace=wrap;html=1;" vertex="1" parent="1">
          <mxGeometry x="590" y="760" width="120" height="60" as="geometry" />
        </mxCell>
        <mxCell id="4qUAyBkfXDqzjAxu6Q62-26" value="Linguagens de Compilação (Processo de Build)" style="rounded=1;whiteSpace=wrap;html=1;" vertex="1" parent="1">
          <mxGeometry x="10" width="120" height="60" as="geometry" />
        </mxCell>
      </root>
    </mxGraphModel>
  </diagram>
</mxfile>
